{"asset":{"version":"2.0","generator":"Blockbench 5.0.3 glTF exporter"},"scenes":[{"nodes":[4,5,6,7],"name":"blockbench_export"}],"scene":0,"nodes":[{"translation":[-0.1875,0.3125,0],"name":"cylinder","mesh":0},{"translation":[0.25,0.3125,-1.3125],"name":"cylinder","mesh":1},{"translation":[0.1875,0.3125,0],"name":"cylinder","mesh":2},{"translation":[-0.25,0.3125,-1.3125],"name":"cylinder","mesh":3},{"name":"group","children":[0,1,2,3]},{"rotation":[0,0,0.7071067811865475,0.7071067811865476],"translation":[0.25,1.8125,0.9375],"name":"beveled_cuboid","mesh":4},{"translation":[0,0.9375,-0.5625],"name":"beveled_cuboid","mesh":5},{"rotation":[0.23768589232617307,0,0,0.9713420698132614],"translation":[0,1.0625,-1.625],"name":"cuboid","mesh":6}],"bufferViews":[{"buffer":0,"byteOffset":0,"byteLength":1296,"target":34962,"byteStride":12},{"buffer":0,"byteOffset":1296,"byteLength":1296,"target":34962,"byteStride":12},{"buffer":0,"byteOffset":2592,"byteLength":864,"target":34962,"byteStride":8},{"buffer":0,"byteOffset":3456,"byteLength":288,"target":34963},{"buffer":0,"byteOffset":3744,"byteLength":3216,"target":34962,"byteStride":12},{"buffer":0,"byteOffset":6960,"byteLength":3216,"target":34962,"byteStride":12},{"buffer":0,"byteOffset":10176,"byteLength":2144,"target":34962,"byteStride":8},{"buffer":0,"byteOffset":12320,"byteLength":732,"target":34963},{"buffer":0,"byteOffset":13052,"byteLength":1296,"target":34962,"byteStride":12},{"buffer":0,"byteOffset":14348,"byteLength":1296,"target":34962,"byteStride":12},{"buffer":0,"byteOffset":15644,"byteLength":864,"target":34962,"byteStride":8},{"buffer":0,"byteOffset":16508,"byteLength":288,"target":34963},{"buffer":0,"byteOffset":16796,"byteLength":3216,"target":34962,"byteStride":12},{"buffer":0,"byteOffset":20012,"byteLength":3216,"target":34962,"byteStride":12},{"buffer":0,"byteOffset":23228,"byteLength":2144,"target":34962,"byteStride":8},{"buffer":0,"byteOffset":25372,"byteLength":732,"target":34963},{"buffer":0,"byteOffset":26104,"byteLength":3192,"target":34962,"byteStride":12},{"buffer":0,"byteOffset":29296,"byteLength":3192,"target":34962,"byteStride":12},{"buffer":0,"byteOffset":32488,"byteLength":2128,"target":34962,"byteStride":8},{"buffer":0,"byteOffset":34616,"byteLength":732,"target":34963},{"buffer":0,"byteOffset":35348,"byteLength":1968,"target":34962,"byteStride":12},{"buffer":0,"byteOffset":37316,"byteLength":1968,"target":34962,"byteStride":12},{"buffer":0,"byteOffset":39284,"byteLength":1312,"target":34962,"byteStride":8},{"buffer":0,"byteOffset":40596,"byteLength":456,"target":34963},{"buffer":0,"byteOffset":41052,"byteLength":288,"target":34962,"byteStride":12},{"buffer":0,"byteOffset":41340,"byteLength":288,"target":34962,"byteStride":12},{"buffer":0,"byteOffset":41628,"byteLength":192,"target":34962,"byteStride":8},{"buffer":0,"byteOffset":41820,"byteLength":72,"target":34963}],"buffers":[{"byteLength":41892,"uri":"data:application/octet-stream;base64,"}],"accessors":[{"bufferView":0,"componentType":5126,"count":108,"max":[0.07734999805688858,0.75,0.1875],"min":[-0.13985000550746918,-0.3125,-0.10848499834537506],"type":"VEC3"},{"bufferView":1,"componentType":5126,"count":108,"max":[0.9553192853927612,1,0.9828721880912781],"min":[-0.9161379337310791,-1,-1],"type":"VEC3"},{"bufferView":2,"componentType":5126,"count":108,"max":[0.64638751745224,0.6658781170845032],"min":[0.0957999974489212,0.015625],"type":"VEC2"},{"bufferView":3,"componentType":5123,"count":144,"max":[107],"min":[0],"type":"SCALAR"},{"bufferView":4,"componentType":5126,"count":268,"max":[0.13985000550746918,0.9375,0.4375],"min":[-0.07734999805688858,-0.3125,-0.125],"type":"VEC3"},{"bufferView":5,"componentType":5126,"count":268,"max":[1,1,1],"min":[-0.9961154460906982,-1,-1],"type":"VEC3"},{"bufferView":6,"componentType":5126,"count":268,"max":[0.6552249789237976,0.6796875],"min":[0,0],"type":"VEC2"},{"bufferView":7,"componentType":5123,"count":366,"max":[267],"min":[0],"type":"SCALAR"},{"bufferView":8,"componentType":5126,"count":108,"max":[0.13985000550746918,0.75,0.1875],"min":[-0.07734999805688858,-0.3125,-0.1084856241941452],"type":"VEC3"},{"bufferView":9,"componentType":5126,"count":108,"max":[0.9553192853927612,1,0.9828721880912781],"min":[-0.9161379337310791,-1,-1],"type":"VEC3"},{"bufferView":10,"componentType":5126,"count":108,"max":[0.65420001745224,0.6875],"min":[0,0.046875],"type":"VEC2"},{"bufferView":11,"componentType":5123,"count":144,"max":[107],"min":[0],"type":"SCALAR"},{"bufferView":12,"componentType":5126,"count":268,"max":[0.07734999805688858,0.9375,0.4375],"min":[-0.13985000550746918,-0.3125,-0.125],"type":"VEC3"},{"bufferView":13,"componentType":5126,"count":268,"max":[1,1,1],"min":[-0.9961154460906982,-1,-1],"type":"VEC3"},{"bufferView":14,"componentType":5126,"count":268,"max":[0.6552249789237976,0.6796875],"min":[0,0],"type":"VEC2"},{"bufferView":15,"componentType":5123,"count":366,"max":[267],"min":[0],"type":"SCALAR"},{"bufferView":16,"componentType":5126,"count":266,"max":[0.4302837550640106,0.4811587631702423,0.375],"min":[-0.6274531483650208,0.018841249868273735,-0.775256872177124],"type":"VEC3"},{"bufferView":17,"componentType":5126,"count":266,"max":[1,1,0.995255708694458],"min":[-1,-1,-0.9907609820365906],"type":"VEC3"},{"bufferView":18,"componentType":5126,"count":266,"max":[0.6704385280609131,0.6640625],"min":[0.03846586123108864,0],"type":"VEC2"},{"bufferView":19,"componentType":5123,"count":366,"max":[265],"min":[0],"type":"SCALAR"},{"bufferView":20,"componentType":5126,"count":164,"max":[0.375,0.8125,1.054110050201416],"min":[-0.375,-0.125,-0.875],"type":"VEC3"},{"bufferView":21,"componentType":5126,"count":164,"max":[0.9979656934738159,1,0.9762958884239197],"min":[-0.9981271028518677,-0.9892034530639648,-0.9701424837112427],"type":"VEC3"},{"bufferView":22,"componentType":5126,"count":164,"max":[0.6484375,0.640625],"min":[0.0019137499621137977,0],"type":"VEC2"},{"bufferView":23,"componentType":5123,"count":228,"max":[163],"min":[0],"type":"SCALAR"},{"bufferView":24,"componentType":5126,"count":24,"max":[0.125,0.625,0.125],"min":[-0.125,-0.25,-0.125],"type":"VEC3"},{"bufferView":25,"componentType":5126,"count":24,"max":[1,1,1],"min":[-1,-1,-1],"type":"VEC3"},{"bufferView":26,"componentType":5126,"count":24,"max":[0.46875,0.5625],"min":[0.046875,0.1015625],"type":"VEC2"},{"bufferView":27,"componentType":5123,"count":36,"max":[23],"min":[0],"type":"SCALAR"}],"materials":[{"pbrMetallicRoughness":{"metallicFactor":0,"roughnessFactor":1,"baseColorTexture":{"index":0}},"alphaMode":"MASK","alphaCutoff":0.05,"doubleSided":true}],"textures":[{"sampler":0,"source":0,"name":"uma tex.png"}],"samplers":[{"magFilter":9728,"minFilter":9728,"wrapS":33071,"wrapT":33071}],"images":[{"mimeType":"image/png","uri":"data:image/png;base64,"}],"meshes":[{"primitives":[{"mode":4,"attributes":{"POSITION":0,"NORMAL":1,"TEXCOORD_0":2},"indices":3,"material":0}]},{"primitives":[{"mode":4,"attributes":{"POSITION":4,"NORMAL":5,"TEXCOORD_0":6},"indices":7,"material":0}]},{"primitives":[{"mode":4,"attributes":{"POSITION":8,"NORMAL":9,"TEXCOORD_0":10},"indices":11,"material":0}]},{"primitives":[{"mode":4,"attributes":{"POSITION":12,"NORMAL":13,"TEXCOORD_0":14},"indices":15,"material":0}]},{"primitives":[{"mode":4,"attributes":{"POSITION":16,"NORMAL":17,"TEXCOORD_0":18},"indices":19,"material":0}]},{"primitives":[{"mode":4,"attributes":{"POSITION":20,"NORMAL":21,"TEXCOORD_0":22},"indices":23,"material":0}]},{"primitives":[{"mode":4,"attributes":{"POSITION":24,"NORMAL":25,"TEXCOORD_0":26},"indices":27,"material":0}]}]}