{"asset":{"version":"2.0","generator":"Blockbench 5.0.3 glTF exporter"},"scenes":[{"nodes":[2,3],"name":"blockbench_export"}],"scene":0,"nodes":[{"translation":[1.25,-0.125,0],"name":"door body","mesh":0},{"rotation":[-0.7071067811865475,0,0,0.7071067811865476],"translation":[1.125,0,0.0625],"name":"handle","mesh":1},{"translation":[-0.625,1.375,0],"name":"door","children":[0,1]},{"translation":[0.8125,0,0],"name":"doorframe","mesh":2}],"bufferViews":[{"buffer":0,"byteOffset":0,"byteLength":288,"target":34962,"byteStride":12},{"buffer":0,"byteOffset":288,"byteLength":288,"target":34962,"byteStride":12},{"buffer":0,"byteOffset":576,"byteLength":192,"target":34962,"byteStride":8},{"buffer":0,"byteOffset":768,"byteLength":72,"target":34963},{"buffer":0,"byteOffset":840,"byteLength":720,"target":34962,"byteStride":12},{"buffer":0,"byteOffset":1560,"byteLength":720,"target":34962,"byteStride":12},{"buffer":0,"byteOffset":2280,"byteLength":480,"target":34962,"byteStride":8},{"buffer":0,"byteOffset":2760,"byteLength":144,"target":34963},{"buffer":0,"byteOffset":2904,"byteLength":864,"target":34962,"byteStride":12},{"buffer":0,"byteOffset":3768,"byteLength":864,"target":34962,"byteStride":12},{"buffer":0,"byteOffset":4632,"byteLength":576,"target":34962,"byteStride":8},{"buffer":0,"byteOffset":5208,"byteLength":216,"target":34963},{"buffer":0,"byteOffset":5424,"byteLength":44},{"buffer":0,"byteOffset":5468,"byteLength":176},{"buffer":0,"byteOffset":5644,"byteLength":44},{"buffer":0,"byteOffset":5688,"byteLength":176}],"buffers":[{"byteLength":5864,"uri":"data:application/octet-stream;base64,"}],"accessors":[{"bufferView":0,"componentType":5126,"count":24,"max":[0.0625,1.375,0.0625],"min":[-1.3125,-1.25,-0.0625],"type":"VEC3"},{"bufferView":1,"componentType":5126,"count":24,"max":[1,1,1],"min":[-1,-1,-1],"type":"VEC3"},{"bufferView":2,"componentType":5126,"count":24,"max":[0.53125,0.703125],"min":[0,0],"type":"VEC2"},{"bufferView":3,"componentType":5123,"count":36,"max":[23],"min":[0],"type":"SCALAR"},{"bufferView":4,"componentType":5126,"count":60,"max":[0.14433756470680237,0.25,0.125],"min":[-0.14433756470680237,-0.125,-0.125],"type":"VEC3"},{"bufferView":5,"componentType":5126,"count":60,"max":[0.8660253882408142,1,1],"min":[-0.8660253882408142,-1,-1],"type":"VEC3"},{"bufferView":6,"componentType":5126,"count":60,"max":[0.4453125,0.4609375],"min":[0.359375,0.1640625],"type":"VEC2"},{"bufferView":7,"componentType":5123,"count":72,"max":[59],"min":[0],"type":"SCALAR"},{"bufferView":8,"componentType":5126,"count":72,"max":[0.125,2.875,0.125],"min":[-1.75,0,-0.125],"type":"VEC3"},{"bufferView":9,"componentType":5126,"count":72,"max":[1,1,1],"min":[-1,-1,-1],"type":"VEC3"},{"bufferView":10,"componentType":5126,"count":72,"max":[0.53125,0.6953125],"min":[0,0],"type":"VEC2"},{"bufferView":11,"componentType":5123,"count":108,"max":[71],"min":[0],"type":"SCALAR"},{"bufferView":12,"componentType":5126,"count":11,"max":[0.5416666865348816],"min":[0],"type":"SCALAR"},{"bufferView":13,"componentType":5126,"count":11,"max":[0,0.7071067690849304,0,1],"min":[0,0,0,0.7071067690849304],"type":"VEC4"},{"bufferView":14,"componentType":5126,"count":11,"max":[0.5416666865348816],"min":[0],"type":"SCALAR"},{"bufferView":15,"componentType":5126,"count":11,"max":[0,0,0,1],"min":[0,-0.6980404257774353,0,0.7160583138465881],"type":"VEC4"}],"materials":[{"pbrMetallicRoughness":{"metallicFactor":0,"roughnessFactor":1,"baseColorTexture":{"index":0}},"alphaMode":"MASK","alphaCutoff":0.05,"doubleSided":true}],"textures":[{"sampler":0,"source":0,"name":"texture"}],"samplers":[{"magFilter":9728,"minFilter":9728,"wrapS":33071,"wrapT":33071}],"images":[{"mimeType":"image/png","uri":"data:image/png;base64,"}],"meshes":[{"primitives":[{"mode":4,"attributes":{"POSITION":0,"NORMAL":1,"TEXCOORD_0":2},"indices":3,"material":0}]},{"primitives":[{"mode":4,"attributes":{"POSITION":4,"NORMAL":5,"TEXCOORD_0":6},"indices":7,"material":0}]},{"primitives":[{"mode":4,"attributes":{"POSITION":8,"NORMAL":9,"TEXCOORD_0":10},"indices":11,"material":0}]}],"animations":[{"name":"open1","samplers":[{"input":12,"output":13,"interpolation":"LINEAR"}],"channels":[{"sampler":0,"target":{"node":2,"path":"rotation"}}]},{"name":"open2","samplers":[{"input":14,"output":15,"interpolation":"LINEAR"}],"channels":[{"sampler":0,"target":{"node":2,"path":"rotation"}}]}]}