{"asset":{"version":"2.0","generator":"Blockbench 5.0.3 glTF exporter"},"scenes":[{"nodes":[0,1,2],"name":"blockbench_export"}],"scene":0,"nodes":[{"name":"_(Loose_Entity)","mesh":0},{"name":"corn_top","mesh":1},{"name":"corn_side","mesh":2}],"bufferViews":[{"buffer":0,"byteOffset":0,"byteLength":38808,"target":34962,"byteStride":12},{"buffer":0,"byteOffset":38808,"byteLength":38808,"target":34962,"byteStride":12},{"buffer":0,"byteOffset":77616,"byteLength":25872,"target":34962,"byteStride":8},{"buffer":0,"byteOffset":103488,"byteLength":6468,"target":34963},{"buffer":0,"byteOffset":109956,"byteLength":360,"target":34962,"byteStride":12},{"buffer":0,"byteOffset":110316,"byteLength":360,"target":34962,"byteStride":12},{"buffer":0,"byteOffset":110676,"byteLength":240,"target":34962,"byteStride":8},{"buffer":0,"byteOffset":110916,"byteLength":60,"target":34963},{"buffer":0,"byteOffset":110976,"byteLength":600,"target":34962,"byteStride":12},{"buffer":0,"byteOffset":111576,"byteLength":600,"target":34962,"byteStride":12},{"buffer":0,"byteOffset":112176,"byteLength":400,"target":34962,"byteStride":8},{"buffer":0,"byteOffset":112576,"byteLength":144,"target":34963}],"buffers":[{"byteLength":112720,"uri":"data:application/octet-stream;base64,"}],"accessors":[{"bufferView":0,"componentType":5126,"count":3234,"max":[66.65205383300781,-2.6658830642700195,58.92095947265625],"min":[-76.32139587402344,-26.66686248779297,-56.69353485107422],"type":"VEC3"},{"bufferView":1,"componentType":5126,"count":3234,"max":[1,1,1],"min":[-1,0,-1],"type":"VEC3"},{"bufferView":2,"componentType":5126,"count":3234,"max":[371.4631652832031,143.97679138183594],"min":[-371.21673583984375,-85.8073501586914],"type":"VEC2"},{"bufferView":3,"componentType":5123,"count":3234,"max":[3233],"min":[0],"type":"SCALAR"},{"bufferView":4,"componentType":5126,"count":30,"max":[-9.224834442138672,-3.1062674522399902,14.206771850585938],"min":[-26.34061050415039,-3.1062674522399902,-16.596553802490234],"type":"VEC3"},{"bufferView":5,"componentType":5126,"count":30,"max":[0,1,0],"min":[0,1,0],"type":"VEC3"},{"bufferView":6,"componentType":5126,"count":30,"max":[-4.29365873336792,1.5062707662582397],"min":[-4.349930763244629,1.4067742824554443],"type":"VEC2"},{"bufferView":7,"componentType":5123,"count":30,"max":[29],"min":[0],"type":"SCALAR"},{"bufferView":8,"componentType":5126,"count":50,"max":[-9.224834442138672,-3.1062674522399902,14.206771850585938],"min":[-26.34061050415039,-5.479453086853027,-16.596553802490234],"type":"VEC3"},{"bufferView":9,"componentType":5126,"count":50,"max":[0.9702960848808289,0,1],"min":[-0.9277180433273315,0,-1],"type":"VEC3"},{"bufferView":10,"componentType":5126,"count":50,"max":[8.550643920898438,0.5932968854904175],"min":[0,0],"type":"VEC2"},{"bufferView":11,"componentType":5123,"count":72,"max":[49],"min":[0],"type":"SCALAR"}],"materials":[{"pbrMetallicRoughness":{"metallicFactor":0,"roughnessFactor":1},"alphaMode":"MASK","alphaCutoff":0.05,"doubleSided":true},{"pbrMetallicRoughness":{"metallicFactor":0,"roughnessFactor":1,"baseColorTexture":{"index":0}},"alphaMode":"MASK","alphaCutoff":0.05,"doubleSided":true}],"meshes":[{"primitives":[{"mode":4,"attributes":{"POSITION":0,"NORMAL":1,"TEXCOORD_0":2},"indices":3,"material":0}]},{"primitives":[{"mode":4,"attributes":{"POSITION":4,"NORMAL":5,"TEXCOORD_0":6},"indices":7,"material":0}]},{"primitives":[{"mode":4,"attributes":{"POSITION":8,"NORMAL":9,"TEXCOORD_0":10},"indices":11,"material":1}]}],"textures":[{"sampler":0,"source":0,"name":"corn side.png"}],"samplers":[{"magFilter":9728,"minFilter":9728,"wrapS":33071,"wrapT":33071}],"images":[{"mimeType":"image/png","uri":"data:image/png;base64,"}]}