{
	"asset":{
		"generator":"Khronos glTF Blender I/O v4.5.49",
		"version":"2.0"
	},
	"scene":0,
	"scenes":[
		{
			"name":"Scene",
			"nodes":[
				0,
				1,
				2,
				3
			]
		}
	],
	"nodes":[
		{
			"mesh":0,
			"name":"platform",
			"scale":[
				4.388883590698242,
				3.154531478881836,
				4.388883590698242
			],
			"translation":[
				-65.88648986816406,
				8.866911888122559,
				5.347357273101807
			]
		},
		{
			"mesh":1,
			"name":"ground",
			"scale":[
				4.388883590698242,
				3.154531478881836,
				4.388883590698242
			],
			"translation":[
				-77.25869750976562,
				-21.5112361907959,
				59.01637268066406
			]
		},
		{
			"mesh":2,
			"name":"corn side",
			"scale":[
				4.388883590698242,
				3.154531478881836,
				4.388883590698242
			],
			"translation":[
				-71.16503143310547,
				5.807005882263184,
				53.93390655517578
			]
		},
		{
			"mesh":3,
			"name":"corn top",
			"scale":[
				4.388883590698242,
				3.154531478881836,
				4.388883590698242
			],
			"translation":[
				-71.16503143310547,
				8.866911888122559,
				53.93390655517578
			]
		}
	],
	"materials":[
		{
			"alphaMode":"BLEND",
			"doubleSided":true,
			"name":"[Color A06]",
			"pbrMetallicRoughness":{
				"baseColorTexture":{
					"index":0
				},
				"metallicFactor":0,
				"roughnessFactor":0.5
			}
		},
		{
			"alphaMode":"BLEND",
			"doubleSided":true,
			"name":"[Color B02]",
			"pbrMetallicRoughness":{
				"baseColorTexture":{
					"index":1
				},
				"metallicFactor":0,
				"roughnessFactor":0.5
			}
		},
		{
			"alphaMode":"BLEND",
			"doubleSided":true,
			"name":"[Color B04]",
			"pbrMetallicRoughness":{
				"baseColorTexture":{
					"index":2
				},
				"metallicFactor":0,
				"roughnessFactor":0.5
			}
		},
		{
			"alphaMode":"BLEND",
			"doubleSided":true,
			"name":"[Color B03]",
			"pbrMetallicRoughness":{
				"baseColorTexture":{
					"index":3
				},
				"metallicFactor":0,
				"roughnessFactor":0.5
			}
		}
	],
	"meshes":[
		{
			"name":"G-Object.004",
			"primitives":[
				{
					"attributes":{
						"POSITION":0,
						"NORMAL":1,
						"TEXCOORD_0":2
					},
					"indices":3,
					"material":0
				}
			]
		},
		{
			"name":"G-Object.005",
			"primitives":[
				{
					"attributes":{
						"POSITION":4,
						"NORMAL":5,
						"TEXCOORD_0":6
					},
					"indices":7,
					"material":1
				}
			]
		},
		{
			"name":"G-Object.006",
			"primitives":[
				{
					"attributes":{
						"POSITION":8,
						"NORMAL":9,
						"TEXCOORD_0":10
					},
					"indices":11,
					"material":2
				}
			]
		},
		{
			"name":"G-Object.007",
			"primitives":[
				{
					"attributes":{
						"POSITION":12,
						"NORMAL":13,
						"TEXCOORD_0":14
					},
					"indices":15,
					"material":3
				}
			]
		}
	],
	"textures":[
		{
			"sampler":0,
			"source":0
		},
		{
			"sampler":0,
			"source":1
		},
		{
			"sampler":0,
			"source":2
		},
		{
			"sampler":0,
			"source":3
		}
	],
	"images":[
		{
			"mimeType":"image/png",
			"name":"wood",
			"uri":"wood.png"
		},
		{
			"mimeType":"image/png",
			"name":"corn_dirt",
			"uri":"corn_dirt.png"
		},
		{
			"mimeType":"image/png",
			"name":"corn_side",
			"uri":"corn_side.png"
		},
		{
			"mimeType":"image/png",
			"name":"corn_top",
			"uri":"corn_top.png"
		}
	],
	"accessors":[
		{
			"bufferView":0,
			"componentType":5126,
			"count":22,
			"max":[
				2.950000047683716,
				0.18000000715255737,
				0
			],
			"min":[
				0,
				0,
				-2.950000047683716
			],
			"type":"VEC3"
		},
		{
			"bufferView":1,
			"componentType":5126,
			"count":22,
			"type":"VEC3"
		},
		{
			"bufferView":2,
			"componentType":5126,
			"count":22,
			"type":"VEC2"
		},
		{
			"bufferView":3,
			"componentType":5123,
			"count":36,
			"type":"SCALAR"
		},
		{
			"bufferView":4,
			"componentType":5126,
			"count":556,
			"max":[
				32.90410232543945,
				8.65999984741211,
				0
			],
			"min":[
				0,
				0,
				-26.607675552368164
			],
			"type":"VEC3"
		},
		{
			"bufferView":5,
			"componentType":5126,
			"count":556,
			"type":"VEC3"
		},
		{
			"bufferView":6,
			"componentType":5126,
			"count":556,
			"type":"VEC2"
		},
		{
			"bufferView":7,
			"componentType":5123,
			"count":1293,
			"type":"SCALAR"
		},
		{
			"bufferView":8,
			"componentType":5126,
			"count":922,
			"max":[
				30.975849151611328,
				0.9700000286102295,
				0
			],
			"min":[
				0,
				0,
				-23.537254333496094
			],
			"type":"VEC3"
		},
		{
			"bufferView":9,
			"componentType":5126,
			"count":922,
			"type":"VEC3"
		},
		{
			"bufferView":10,
			"componentType":5126,
			"count":922,
			"type":"VEC2"
		},
		{
			"bufferView":11,
			"componentType":5123,
			"count":1374,
			"type":"SCALAR"
		},
		{
			"bufferView":12,
			"componentType":5126,
			"count":233,
			"max":[
				30.975849151611328,
				1.4438228216156449e-15,
				0
			],
			"min":[
				0,
				0,
				-23.537254333496094
			],
			"type":"VEC3"
		},
		{
			"bufferView":13,
			"componentType":5126,
			"count":233,
			"type":"VEC3"
		},
		{
			"bufferView":14,
			"componentType":5126,
			"count":233,
			"type":"VEC2"
		},
		{
			"bufferView":15,
			"componentType":5123,
			"count":651,
			"type":"SCALAR"
		}
	],
	"bufferViews":[
		{
			"buffer":0,
			"byteLength":264,
			"byteOffset":0,
			"target":34962
		},
		{
			"buffer":0,
			"byteLength":264,
			"byteOffset":264,
			"target":34962
		},
		{
			"buffer":0,
			"byteLength":176,
			"byteOffset":528,
			"target":34962
		},
		{
			"buffer":0,
			"byteLength":72,
			"byteOffset":704,
			"target":34963
		},
		{
			"buffer":0,
			"byteLength":6672,
			"byteOffset":776,
			"target":34962
		},
		{
			"buffer":0,
			"byteLength":6672,
			"byteOffset":7448,
			"target":34962
		},
		{
			"buffer":0,
			"byteLength":4448,
			"byteOffset":14120,
			"target":34962
		},
		{
			"buffer":0,
			"byteLength":2586,
			"byteOffset":18568,
			"target":34963
		},
		{
			"buffer":0,
			"byteLength":11064,
			"byteOffset":21156,
			"target":34962
		},
		{
			"buffer":0,
			"byteLength":11064,
			"byteOffset":32220,
			"target":34962
		},
		{
			"buffer":0,
			"byteLength":7376,
			"byteOffset":43284,
			"target":34962
		},
		{
			"buffer":0,
			"byteLength":2748,
			"byteOffset":50660,
			"target":34963
		},
		{
			"buffer":0,
			"byteLength":2796,
			"byteOffset":53408,
			"target":34962
		},
		{
			"buffer":0,
			"byteLength":2796,
			"byteOffset":56204,
			"target":34962
		},
		{
			"buffer":0,
			"byteLength":1864,
			"byteOffset":59000,
			"target":34962
		},
		{
			"buffer":0,
			"byteLength":1302,
			"byteOffset":60864,
			"target":34963
		}
	],
	"samplers":[
		{
			"magFilter":9729,
			"minFilter":9987
		}
	],
	"buffers":[
		{
			"byteLength":62168,
			"uri":"maize%20domain%202.bin"
		}
	]
}
