{"asset":{"version":"2.0","generator":"Blockbench 5.0.3 glTF exporter"},"scenes":[{"nodes":[1,3,5,7,9,11,13],"name":"blockbench_export"}],"scene":0,"nodes":[{"name":"head"},{"name":"head","mesh":0,"children":[0],"skin":0},{"name":"body"},{"name":"body","mesh":1,"children":[2],"skin":1},{"name":"tail"},{"name":"tail","mesh":2,"children":[4],"skin":2},{"name":"fl_leg"},{"name":"fl_leg","mesh":3,"children":[6],"skin":3},{"name":"fr_leg"},{"name":"fr_leg","mesh":4,"children":[8],"skin":4},{"name":"hl_leg"},{"name":"hl_leg","mesh":5,"children":[10],"skin":5},{"name":"hr_leg"},{"name":"hr_leg","mesh":6,"children":[12],"skin":6}],"bufferViews":[{"buffer":0,"byteOffset":0,"byteLength":3288,"target":34962,"byteStride":12},{"buffer":0,"byteOffset":3288,"byteLength":3288,"target":34962,"byteStride":12},{"buffer":0,"byteOffset":6576,"byteLength":2192,"target":34962,"byteStride":8},{"buffer":0,"byteOffset":8768,"byteLength":2192,"target":34962,"byteStride":8},{"buffer":0,"byteOffset":10960,"byteLength":4384,"target":34962,"byteStride":16},{"buffer":0,"byteOffset":15344,"byteLength":756,"target":34963},{"buffer":0,"byteOffset":16100,"byteLength":1968,"target":34962,"byteStride":12},{"buffer":0,"byteOffset":18068,"byteLength":1968,"target":34962,"byteStride":12},{"buffer":0,"byteOffset":20036,"byteLength":1312,"target":34962,"byteStride":8},{"buffer":0,"byteOffset":21348,"byteLength":1312,"target":34962,"byteStride":8},{"buffer":0,"byteOffset":22660,"byteLength":2624,"target":34962,"byteStride":16},{"buffer":0,"byteOffset":25284,"byteLength":456,"target":34963},{"buffer":0,"byteOffset":25740,"byteLength":288,"target":34962,"byteStride":12},{"buffer":0,"byteOffset":26028,"byteLength":288,"target":34962,"byteStride":12},{"buffer":0,"byteOffset":26316,"byteLength":192,"target":34962,"byteStride":8},{"buffer":0,"byteOffset":26508,"byteLength":192,"target":34962,"byteStride":8},{"buffer":0,"byteOffset":26700,"byteLength":384,"target":34962,"byteStride":16},{"buffer":0,"byteOffset":27084,"byteLength":72,"target":34963},{"buffer":0,"byteOffset":27156,"byteLength":1344,"target":34962,"byteStride":12},{"buffer":0,"byteOffset":28500,"byteLength":1344,"target":34962,"byteStride":12},{"buffer":0,"byteOffset":29844,"byteLength":896,"target":34962,"byteStride":8},{"buffer":0,"byteOffset":30740,"byteLength":896,"target":34962,"byteStride":8},{"buffer":0,"byteOffset":31636,"byteLength":1792,"target":34962,"byteStride":16},{"buffer":0,"byteOffset":33428,"byteLength":300,"target":34963},{"buffer":0,"byteOffset":33728,"byteLength":1344,"target":34962,"byteStride":12},{"buffer":0,"byteOffset":35072,"byteLength":1344,"target":34962,"byteStride":12},{"buffer":0,"byteOffset":36416,"byteLength":896,"target":34962,"byteStride":8},{"buffer":0,"byteOffset":37312,"byteLength":896,"target":34962,"byteStride":8},{"buffer":0,"byteOffset":38208,"byteLength":1792,"target":34962,"byteStride":16},{"buffer":0,"byteOffset":40000,"byteLength":300,"target":34963},{"buffer":0,"byteOffset":40300,"byteLength":3264,"target":34962,"byteStride":12},{"buffer":0,"byteOffset":43564,"byteLength":3264,"target":34962,"byteStride":12},{"buffer":0,"byteOffset":46828,"byteLength":2176,"target":34962,"byteStride":8},{"buffer":0,"byteOffset":49004,"byteLength":2176,"target":34962,"byteStride":8},{"buffer":0,"byteOffset":51180,"byteLength":4352,"target":34962,"byteStride":16},{"buffer":0,"byteOffset":55532,"byteLength":744,"target":34963},{"buffer":0,"byteOffset":56276,"byteLength":3264,"target":34962,"byteStride":12},{"buffer":0,"byteOffset":59540,"byteLength":3264,"target":34962,"byteStride":12},{"buffer":0,"byteOffset":62804,"byteLength":2176,"target":34962,"byteStride":8},{"buffer":0,"byteOffset":64980,"byteLength":2176,"target":34962,"byteStride":8},{"buffer":0,"byteOffset":67156,"byteLength":4352,"target":34962,"byteStride":16},{"buffer":0,"byteOffset":71508,"byteLength":744,"target":34963},{"buffer":0,"byteOffset":72252,"byteLength":64},{"buffer":0,"byteOffset":72316,"byteLength":64},{"buffer":0,"byteOffset":72380,"byteLength":64},{"buffer":0,"byteOffset":72444,"byteLength":64},{"buffer":0,"byteOffset":72508,"byteLength":64},{"buffer":0,"byteOffset":72572,"byteLength":64},{"buffer":0,"byteOffset":72636,"byteLength":64}],"buffers":[{"byteLength":72700,"uri":"data:application/octet-stream;base64,"}],"accessors":[{"bufferView":0,"componentType":5126,"count":274,"max":[0.5,2.242783784866333,1.3125],"min":[-0.5,0.8825958967208862,0.16224312782287598],"type":"VEC3"},{"bufferView":1,"componentType":5126,"count":274,"max":[1,1,0.9961947202682495],"min":[-1,-1,-0.9907609820365906],"type":"VEC3"},{"bufferView":2,"componentType":5126,"count":274,"max":[0.96875,0.6640625],"min":[0.03846586123108864,0],"type":"VEC2"},{"bufferView":3,"componentType":5123,"count":274,"max":[0,0,0,0],"min":[0,0,0,0],"type":"VEC4"},{"bufferView":4,"componentType":5126,"count":274,"max":[0,1,0,0],"min":[0,1,0,0],"type":"VEC4"},{"bufferView":5,"componentType":5123,"count":378,"max":[273],"min":[0],"type":"SCALAR"},{"bufferView":6,"componentType":5126,"count":164,"max":[0.375,1.75,0.491610050201416],"min":[-0.375,0.8125,-1.4375],"type":"VEC3"},{"bufferView":7,"componentType":5126,"count":164,"max":[0.9979656934738159,1,0.9762958884239197],"min":[-0.9981271028518677,-0.9892034530639648,-0.9701424837112427],"type":"VEC3"},{"bufferView":8,"componentType":5126,"count":164,"max":[0.6484375,0.640625],"min":[0.0019137499621137977,0],"type":"VEC2"},{"bufferView":9,"componentType":5123,"count":164,"max":[0,0,0,0],"min":[0,0,0,0],"type":"VEC4"},{"bufferView":10,"componentType":5126,"count":164,"max":[0,1,0,0],"min":[0,1,0,0],"type":"VEC4"},{"bufferView":11,"componentType":5123,"count":228,"max":[163],"min":[0],"type":"SCALAR"},{"bufferView":12,"componentType":5126,"count":24,"max":[0.125,1.67460036277771,-1.225530743598938],"min":[-0.125,0.7830287218093872,-1.8513134717941284],"type":"VEC3"},{"bufferView":13,"componentType":5126,"count":24,"max":[1,0.8870108127593994,0.8870108127593994],"min":[-1,-0.8870108127593994,-0.8870108127593994],"type":"VEC3"},{"bufferView":14,"componentType":5126,"count":24,"max":[0.46875,0.5625],"min":[0.046875,0.1015625],"type":"VEC2"},{"bufferView":15,"componentType":5123,"count":24,"max":[0,0,0,0],"min":[0,0,0,0],"type":"VEC4"},{"bufferView":16,"componentType":5126,"count":24,"max":[0,1,0,0],"min":[0,1,0,0],"type":"VEC4"},{"bufferView":17,"componentType":5123,"count":36,"max":[23],"min":[0],"type":"SCALAR"},{"bufferView":18,"componentType":5126,"count":112,"max":[0.32735002040863037,1.0625,0.1875],"min":[0.11015000194311142,0,-0.375],"type":"VEC3"},{"bufferView":19,"componentType":5126,"count":112,"max":[1,1,0.9828721880912781],"min":[-0.9161379337310791,-1,-1],"type":"VEC3"},{"bufferView":20,"componentType":5126,"count":112,"max":[0.7265625,0.6875],"min":[0,0.046875],"type":"VEC2"},{"bufferView":21,"componentType":5123,"count":112,"max":[0,0,0,0],"min":[0,0,0,0],"type":"VEC4"},{"bufferView":22,"componentType":5126,"count":112,"max":[0,1,0,0],"min":[0,1,0,0],"type":"VEC4"},{"bufferView":23,"componentType":5123,"count":150,"max":[111],"min":[0],"type":"SCALAR"},{"bufferView":24,"componentType":5126,"count":112,"max":[-0.11015000194311142,1.0625,0.1875],"min":[-0.32735002040863037,0,-0.375],"type":"VEC3"},{"bufferView":25,"componentType":5126,"count":112,"max":[1,1,0.9828721880912781],"min":[-0.9161379337310791,-1,-1],"type":"VEC3"},{"bufferView":26,"componentType":5126,"count":112,"max":[0.7265625,0.6658781170845032],"min":[0.0957999974489212,0.015625],"type":"VEC2"},{"bufferView":27,"componentType":5123,"count":112,"max":[0,0,0,0],"min":[0,0,0,0],"type":"VEC4"},{"bufferView":28,"componentType":5126,"count":112,"max":[0,1,0,0],"min":[0,1,0,0],"type":"VEC4"},{"bufferView":29,"componentType":5123,"count":150,"max":[111],"min":[0],"type":"SCALAR"},{"bufferView":30,"componentType":5126,"count":272,"max":[0.38985002040863037,1.25,-0.875],"min":[0.17265000939369202,0,-1.6875],"type":"VEC3"},{"bufferView":31,"componentType":5126,"count":272,"max":[1,1,1],"min":[-0.9961154460906982,-1,-1],"type":"VEC3"},{"bufferView":32,"componentType":5126,"count":272,"max":[0.7265625,0.6796875],"min":[0,0],"type":"VEC2"},{"bufferView":33,"componentType":5123,"count":272,"max":[0,0,0,0],"min":[0,0,0,0],"type":"VEC4"},{"bufferView":34,"componentType":5126,"count":272,"max":[0,1,0,0],"min":[0,1,0,0],"type":"VEC4"},{"bufferView":35,"componentType":5123,"count":372,"max":[271],"min":[0],"type":"SCALAR"},{"bufferView":36,"componentType":5126,"count":272,"max":[-0.17265000939369202,1.25,-0.875],"min":[-0.38985002040863037,0,-1.6875],"type":"VEC3"},{"bufferView":37,"componentType":5126,"count":272,"max":[1,1,1],"min":[-0.9961154460906982,-1,-1],"type":"VEC3"},{"bufferView":38,"componentType":5126,"count":272,"max":[0.7265625,0.6796875],"min":[0,0],"type":"VEC2"},{"bufferView":39,"componentType":5123,"count":272,"max":[0,0,0,0],"min":[0,0,0,0],"type":"VEC4"},{"bufferView":40,"componentType":5126,"count":272,"max":[0,1,0,0],"min":[0,1,0,0],"type":"VEC4"},{"bufferView":41,"componentType":5123,"count":372,"max":[271],"min":[0],"type":"SCALAR"},{"bufferView":42,"componentType":5126,"count":1,"max":[1,0,0,0,0,1,0,0,0,0,1,0,0,0,0,1],"min":[1,0,0,0,0,1,0,0,0,0,1,0,0,0,0,1],"type":"MAT4"},{"bufferView":43,"componentType":5126,"count":1,"max":[1,0,0,0,0,1,0,0,0,0,1,0,0,0,0,1],"min":[1,0,0,0,0,1,0,0,0,0,1,0,0,0,0,1],"type":"MAT4"},{"bufferView":44,"componentType":5126,"count":1,"max":[1,0,0,0,0,1,0,0,0,0,1,0,0,0,0,1],"min":[1,0,0,0,0,1,0,0,0,0,1,0,0,0,0,1],"type":"MAT4"},{"bufferView":45,"componentType":5126,"count":1,"max":[1,0,0,0,0,1,0,0,0,0,1,0,0,0,0,1],"min":[1,0,0,0,0,1,0,0,0,0,1,0,0,0,0,1],"type":"MAT4"},{"bufferView":46,"componentType":5126,"count":1,"max":[1,0,0,0,0,1,0,0,0,0,1,0,0,0,0,1],"min":[1,0,0,0,0,1,0,0,0,0,1,0,0,0,0,1],"type":"MAT4"},{"bufferView":47,"componentType":5126,"count":1,"max":[1,0,0,0,0,1,0,0,0,0,1,0,0,0,0,1],"min":[1,0,0,0,0,1,0,0,0,0,1,0,0,0,0,1],"type":"MAT4"},{"bufferView":48,"componentType":5126,"count":1,"max":[1,0,0,0,0,1,0,0,0,0,1,0,0,0,0,1],"min":[1,0,0,0,0,1,0,0,0,0,1,0,0,0,0,1],"type":"MAT4"}],"materials":[{"pbrMetallicRoughness":{"metallicFactor":0,"roughnessFactor":1,"baseColorTexture":{"index":0}},"alphaMode":"MASK","alphaCutoff":0.05,"doubleSided":true}],"textures":[{"sampler":0,"source":0,"name":"uma corn.png"}],"samplers":[{"magFilter":9728,"minFilter":9728,"wrapS":33071,"wrapT":33071}],"images":[{"mimeType":"image/png","uri":"data:image/png;base64,"}],"meshes":[{"primitives":[{"mode":4,"attributes":{"POSITION":0,"NORMAL":1,"TEXCOORD_0":2,"JOINTS_0":3,"WEIGHTS_0":4},"indices":5,"material":0}]},{"primitives":[{"mode":4,"attributes":{"POSITION":6,"NORMAL":7,"TEXCOORD_0":8,"JOINTS_0":9,"WEIGHTS_0":10},"indices":11,"material":0}]},{"primitives":[{"mode":4,"attributes":{"POSITION":12,"NORMAL":13,"TEXCOORD_0":14,"JOINTS_0":15,"WEIGHTS_0":16},"indices":17,"material":0}]},{"primitives":[{"mode":4,"attributes":{"POSITION":18,"NORMAL":19,"TEXCOORD_0":20,"JOINTS_0":21,"WEIGHTS_0":22},"indices":23,"material":0}]},{"primitives":[{"mode":4,"attributes":{"POSITION":24,"NORMAL":25,"TEXCOORD_0":26,"JOINTS_0":27,"WEIGHTS_0":28},"indices":29,"material":0}]},{"primitives":[{"mode":4,"attributes":{"POSITION":30,"NORMAL":31,"TEXCOORD_0":32,"JOINTS_0":33,"WEIGHTS_0":34},"indices":35,"material":0}]},{"primitives":[{"mode":4,"attributes":{"POSITION":36,"NORMAL":37,"TEXCOORD_0":38,"JOINTS_0":39,"WEIGHTS_0":40},"indices":41,"material":0}]}],"skins":[{"inverseBindMatrices":42,"joints":[0],"skeleton":0},{"inverseBindMatrices":43,"joints":[2],"skeleton":2},{"inverseBindMatrices":44,"joints":[4],"skeleton":4},{"inverseBindMatrices":45,"joints":[6],"skeleton":6},{"inverseBindMatrices":46,"joints":[8],"skeleton":8},{"inverseBindMatrices":47,"joints":[10],"skeleton":10},{"inverseBindMatrices":48,"joints":[12],"skeleton":12}]}