{"asset":{"version":"2.0","generator":"Blockbench 5.0.3 glTF exporter"},"scenes":[{"nodes":[17],"name":"blockbench_export"}],"scene":0,"nodes":[{"translation":[0,-0.375,-0.3125],"name":"beveled_cuboid","mesh":0},{"rotation":[0.6472229537832495,0.28478491549954826,-0.2847849154995486,0.6472229537832506],"translation":[0.375,0.125,-0.9375],"name":"plane","mesh":1},{"rotation":[0.8660254037844386,0,0,0.5000000000000001],"translation":[0,-0.1875,0.1875],"name":"plane","mesh":2},{"rotation":[-0.06534087994326285,-0.0028528444287947334,0.04352599490870172,0.9969091826511144],"translation":[0,0.4375,0.5],"name":"hat","mesh":3},{"rotation":[0,0,0.7071067811865475,0.7071067811865476],"translation":[0.25,0.3125,0.625],"name":"head","mesh":4},{"rotation":[0.6743797232066275,0.24184476264797594,-0.2126311099715931,0.664463024388675],"translation":[0.25,0.4375,0.625],"name":"hair","mesh":5},{"translation":[0,0.1875,0.3125],"name":"head","children":[2,3,4,5]},{"rotation":[0.23768589232617307,0,0,0.9713420698132614],"translation":[0,-0.5,-0.375],"name":"cuboid","mesh":6},{"translation":[0,0.25,-1.25],"name":"tail","children":[7]},{"rotation":[0,0,0.02181488503456112,0.9997620270799091],"translation":[0,-0.875,0],"name":"cylinder","mesh":7},{"translation":[0.25,-0.3125,0.0625],"name":"fl_leg","children":[9]},{"rotation":[0,0,-0.02181488503456112,0.9997620270799091],"translation":[0,-0.875,0],"name":"cylinder","mesh":8},{"translation":[-0.25,-0.3125,0.0625],"name":"fr_leg","children":[11]},{"rotation":[0,0,0.02181488503456112,0.9997620270799091],"translation":[-0.0625,-0.9375,0.0625],"name":"cylinder","mesh":9},{"translation":[0.3125,-0.25,-1.25],"name":"hl_leg","children":[13]},{"rotation":[0,0,-0.02181488503456112,0.9997620270799091],"translation":[-0.625,-0.9375,0.0625],"name":"cylinder","mesh":10},{"translation":[0.375,-0.25,-1.25],"name":"hr_leg","children":[15]},{"translation":[0,1.3125,0],"name":"body","children":[0,1,6,8,10,12,14,16]}],"bufferViews":[{"buffer":0,"byteOffset":0,"byteLength":1968,"target":34962,"byteStride":12},{"buffer":0,"byteOffset":1968,"byteLength":1968,"target":34962,"byteStride":12},{"buffer":0,"byteOffset":3936,"byteLength":1312,"target":34962,"byteStride":8},{"buffer":0,"byteOffset":5248,"byteLength":456,"target":34963},{"buffer":0,"byteOffset":5704,"byteLength":48,"target":34962,"byteStride":12},{"buffer":0,"byteOffset":5752,"byteLength":48,"target":34962,"byteStride":12},{"buffer":0,"byteOffset":5800,"byteLength":32,"target":34962,"byteStride":8},{"buffer":0,"byteOffset":5832,"byteLength":12,"target":34963},{"buffer":0,"byteOffset":5844,"byteLength":96,"target":34962,"byteStride":12},{"buffer":0,"byteOffset":5940,"byteLength":96,"target":34962,"byteStride":12},{"buffer":0,"byteOffset":6036,"byteLength":64,"target":34962,"byteStride":8},{"buffer":0,"byteOffset":6100,"byteLength":24,"target":34963},{"buffer":0,"byteOffset":6124,"byteLength":1344,"target":34962,"byteStride":12},{"buffer":0,"byteOffset":7468,"byteLength":1344,"target":34962,"byteStride":12},{"buffer":0,"byteOffset":8812,"byteLength":896,"target":34962,"byteStride":8},{"buffer":0,"byteOffset":9708,"byteLength":288,"target":34963},{"buffer":0,"byteOffset":9996,"byteLength":3192,"target":34962,"byteStride":12},{"buffer":0,"byteOffset":13188,"byteLength":3192,"target":34962,"byteStride":12},{"buffer":0,"byteOffset":16380,"byteLength":2128,"target":34962,"byteStride":8},{"buffer":0,"byteOffset":18508,"byteLength":732,"target":34963},{"buffer":0,"byteOffset":19240,"byteLength":48,"target":34962,"byteStride":12},{"buffer":0,"byteOffset":19288,"byteLength":48,"target":34962,"byteStride":12},{"buffer":0,"byteOffset":19336,"byteLength":32,"target":34962,"byteStride":8},{"buffer":0,"byteOffset":19368,"byteLength":12,"target":34963},{"buffer":0,"byteOffset":19380,"byteLength":288,"target":34962,"byteStride":12},{"buffer":0,"byteOffset":19668,"byteLength":288,"target":34962,"byteStride":12},{"buffer":0,"byteOffset":19956,"byteLength":192,"target":34962,"byteStride":8},{"buffer":0,"byteOffset":20148,"byteLength":72,"target":34963},{"buffer":0,"byteOffset":20220,"byteLength":720,"target":34962,"byteStride":12},{"buffer":0,"byteOffset":20940,"byteLength":720,"target":34962,"byteStride":12},{"buffer":0,"byteOffset":21660,"byteLength":480,"target":34962,"byteStride":8},{"buffer":0,"byteOffset":22140,"byteLength":144,"target":34963},{"buffer":0,"byteOffset":22284,"byteLength":720,"target":34962,"byteStride":12},{"buffer":0,"byteOffset":23004,"byteLength":720,"target":34962,"byteStride":12},{"buffer":0,"byteOffset":23724,"byteLength":480,"target":34962,"byteStride":8},{"buffer":0,"byteOffset":24204,"byteLength":144,"target":34963},{"buffer":0,"byteOffset":24348,"byteLength":720,"target":34962,"byteStride":12},{"buffer":0,"byteOffset":25068,"byteLength":720,"target":34962,"byteStride":12},{"buffer":0,"byteOffset":25788,"byteLength":480,"target":34962,"byteStride":8},{"buffer":0,"byteOffset":26268,"byteLength":144,"target":34963},{"buffer":0,"byteOffset":26412,"byteLength":720,"target":34962,"byteStride":12},{"buffer":0,"byteOffset":27132,"byteLength":720,"target":34962,"byteStride":12},{"buffer":0,"byteOffset":27852,"byteLength":480,"target":34962,"byteStride":8},{"buffer":0,"byteOffset":28332,"byteLength":144,"target":34963},{"buffer":0,"byteOffset":28476,"byteLength":20},{"buffer":0,"byteOffset":28496,"byteLength":80},{"buffer":0,"byteOffset":28576,"byteLength":64},{"buffer":0,"byteOffset":28640,"byteLength":256},{"buffer":0,"byteOffset":28896,"byteLength":64},{"buffer":0,"byteOffset":28960,"byteLength":192},{"buffer":0,"byteOffset":29152,"byteLength":64},{"buffer":0,"byteOffset":29216,"byteLength":256},{"buffer":0,"byteOffset":29472,"byteLength":64},{"buffer":0,"byteOffset":29536,"byteLength":256},{"buffer":0,"byteOffset":29792,"byteLength":64},{"buffer":0,"byteOffset":29856,"byteLength":256},{"buffer":0,"byteOffset":30112,"byteLength":64},{"buffer":0,"byteOffset":30176,"byteLength":256},{"buffer":0,"byteOffset":30432,"byteLength":64},{"buffer":0,"byteOffset":30496,"byteLength":256},{"buffer":0,"byteOffset":30752,"byteLength":8},{"buffer":0,"byteOffset":30760,"byteLength":32},{"buffer":0,"byteOffset":30792,"byteLength":8},{"buffer":0,"byteOffset":30800,"byteLength":32},{"buffer":0,"byteOffset":30832,"byteLength":8},{"buffer":0,"byteOffset":30840,"byteLength":24},{"buffer":0,"byteOffset":30864,"byteLength":8},{"buffer":0,"byteOffset":30872,"byteLength":32},{"buffer":0,"byteOffset":30904,"byteLength":8},{"buffer":0,"byteOffset":30912,"byteLength":32},{"buffer":0,"byteOffset":30944,"byteLength":8},{"buffer":0,"byteOffset":30952,"byteLength":32},{"buffer":0,"byteOffset":30984,"byteLength":8},{"buffer":0,"byteOffset":30992,"byteLength":32},{"buffer":0,"byteOffset":31024,"byteLength":8},{"buffer":0,"byteOffset":31032,"byteLength":32},{"buffer":0,"byteOffset":31064,"byteLength":20},{"buffer":0,"byteOffset":31084,"byteLength":80},{"buffer":0,"byteOffset":31164,"byteLength":20},{"buffer":0,"byteOffset":31184,"byteLength":80},{"buffer":0,"byteOffset":31264,"byteLength":20},{"buffer":0,"byteOffset":31284,"byteLength":60},{"buffer":0,"byteOffset":31344,"byteLength":20},{"buffer":0,"byteOffset":31364,"byteLength":80},{"buffer":0,"byteOffset":31444,"byteLength":16},{"buffer":0,"byteOffset":31460,"byteLength":64},{"buffer":0,"byteOffset":31524,"byteLength":16},{"buffer":0,"byteOffset":31540,"byteLength":64},{"buffer":0,"byteOffset":31604,"byteLength":16},{"buffer":0,"byteOffset":31620,"byteLength":64},{"buffer":0,"byteOffset":31684,"byteLength":16},{"buffer":0,"byteOffset":31700,"byteLength":64}],"buffers":[{"byteLength":31764,"uri":"data:application/octet-stream;base64,"}],"accessors":[{"bufferView":0,"componentType":5126,"count":164,"max":[0.375,0.8125,0.8041099905967712],"min":[-0.375,-0.125,-1.125],"type":"VEC3"},{"bufferView":1,"componentType":5126,"count":164,"max":[0.9979656934738159,1,0.9762958884239197],"min":[-0.9981271028518677,-0.9892034530639648,-0.9701424837112427],"type":"VEC3"},{"bufferView":2,"componentType":5126,"count":164,"max":[0.6484375,0.640625],"min":[0.0019137499621137977,0],"type":"VEC2"},{"bufferView":3,"componentType":5123,"count":228,"max":[163],"min":[0],"type":"SCALAR"},{"bufferView":4,"componentType":5126,"count":4,"max":[0.1549132615327835,0.020394718274474144,0.21875],"min":[-0.1549132615327835,-0.020394718274474144,-0.09375],"type":"VEC3"},{"bufferView":5,"componentType":5126,"count":4,"max":[-0.13052618503570557,0.9914448857307434,0],"min":[-0.13052618503570557,0.9914448857307434,0],"type":"VEC3"},{"bufferView":6,"componentType":5126,"count":4,"max":[0.75,0.453125],"min":[0.7109375,0.4140625],"type":"VEC2"},{"bufferView":7,"componentType":5123,"count":6,"max":[3],"min":[0],"type":"SCALAR"},{"bufferView":8,"componentType":5126,"count":8,"max":[0.28125,0.10825317353010178,0.28125],"min":[-0.28125,0,-0.34375],"type":"VEC3"},{"bufferView":9,"componentType":5126,"count":8,"max":[0.3592106103897095,0.9332565069198608,0],"min":[-0.3592106103897095,0.9332565069198608,0],"type":"VEC3"},{"bufferView":10,"componentType":5126,"count":8,"max":[0.921875,0.1640625],"min":[0.8515625,0.09375],"type":"VEC2"},{"bufferView":11,"componentType":5123,"count":12,"max":[7],"min":[0],"type":"SCALAR"},{"bufferView":12,"componentType":5126,"count":112,"max":[0.5,0.3125,0.5],"min":[-0.5,0.03125,-0.5],"type":"VEC3"},{"bufferView":13,"componentType":5126,"count":112,"max":[1,0.9701424837112427,0.8880271315574646],"min":[-0.8880271315574646,0,-0.8880271315574646],"type":"VEC3"},{"bufferView":14,"componentType":5126,"count":112,"max":[0.921875,0.390625],"min":[0,0],"type":"VEC2"},{"bufferView":15,"componentType":5123,"count":144,"max":[111],"min":[0],"type":"SCALAR"},{"bufferView":16,"componentType":5126,"count":266,"max":[0.4302837550640106,0.4811587631702423,0.375],"min":[-0.6274531483650208,0.018841249868273735,-0.775256872177124],"type":"VEC3"},{"bufferView":17,"componentType":5126,"count":266,"max":[1,1,0.995255708694458],"min":[-1,-1,-0.9907609820365906],"type":"VEC3"},{"bufferView":18,"componentType":5126,"count":266,"max":[0.6704385280609131,0.6640625],"min":[0.03846586123108864,0],"type":"VEC2"},{"bufferView":19,"componentType":5123,"count":366,"max":[265],"min":[0],"type":"SCALAR"},{"bufferView":20,"componentType":5126,"count":4,"max":[0.15625,0,0.15625],"min":[-0.15625,0,-0.15625],"type":"VEC3"},{"bufferView":21,"componentType":5126,"count":4,"max":[0,1,0],"min":[0,1,0],"type":"VEC3"},{"bufferView":22,"componentType":5126,"count":4,"max":[0.75,0.453125],"min":[0.7109375,0.4140625],"type":"VEC2"},{"bufferView":23,"componentType":5123,"count":6,"max":[3],"min":[0],"type":"SCALAR"},{"bufferView":24,"componentType":5126,"count":24,"max":[0.125,0.625,0.125],"min":[-0.125,-0.25,-0.125],"type":"VEC3"},{"bufferView":25,"componentType":5126,"count":24,"max":[1,1,1],"min":[-1,-1,-1],"type":"VEC3"},{"bufferView":26,"componentType":5126,"count":24,"max":[0.46875,0.5625],"min":[0.046875,0.1015625],"type":"VEC2"},{"bufferView":27,"componentType":5123,"count":36,"max":[23],"min":[0],"type":"SCALAR"},{"bufferView":28,"componentType":5126,"count":60,"max":[0.10825317353010178,0.9375,0.09375],"min":[-0.10825317353010178,-0.1875,-0.09375],"type":"VEC3"},{"bufferView":29,"componentType":5126,"count":60,"max":[0.8060886859893799,1,0.9984603524208069],"min":[-0.8060886859893799,-1,-0.9984603524208069],"type":"VEC3"},{"bufferView":30,"componentType":5126,"count":60,"max":[0.8104062676429749,0.15234375],"min":[0.71875,0.0078125],"type":"VEC2"},{"bufferView":31,"componentType":5123,"count":72,"max":[59],"min":[0],"type":"SCALAR"},{"bufferView":32,"componentType":5126,"count":60,"max":[0.10825317353010178,0.9375,0.09375],"min":[-0.10825317353010178,-0.1875,-0.09375],"type":"VEC3"},{"bufferView":33,"componentType":5126,"count":60,"max":[0.8060886859893799,1,0.9984603524208069],"min":[-0.8060886859893799,-1,-0.9984603524208069],"type":"VEC3"},{"bufferView":34,"componentType":5126,"count":60,"max":[0.8104062676429749,0.15234375],"min":[0.71875,0.0078125],"type":"VEC2"},{"bufferView":35,"componentType":5123,"count":72,"max":[59],"min":[0],"type":"SCALAR"},{"bufferView":36,"componentType":5126,"count":60,"max":[0.10825317353010178,0.9375,0.09375],"min":[-0.10825317353010178,-0.1875,-0.09375],"type":"VEC3"},{"bufferView":37,"componentType":5126,"count":60,"max":[0.8060886859893799,1,0.9984603524208069],"min":[-0.8060886859893799,-1,-0.9984603524208069],"type":"VEC3"},{"bufferView":38,"componentType":5126,"count":60,"max":[0.8104062676429749,0.15234375],"min":[0.71875,0.0078125],"type":"VEC2"},{"bufferView":39,"componentType":5123,"count":72,"max":[59],"min":[0],"type":"SCALAR"},{"bufferView":40,"componentType":5126,"count":60,"max":[0.10825317353010178,0.9375,0.09375],"min":[-0.10825317353010178,-0.1875,-0.09375],"type":"VEC3"},{"bufferView":41,"componentType":5126,"count":60,"max":[0.8060886859893799,1,0.9984603524208069],"min":[-0.8060886859893799,-1,-0.9984603524208069],"type":"VEC3"},{"bufferView":42,"componentType":5126,"count":60,"max":[0.8104062676429749,0.15234375],"min":[0.71875,0.0078125],"type":"VEC2"},{"bufferView":43,"componentType":5123,"count":72,"max":[59],"min":[0],"type":"SCALAR"},{"bufferView":44,"componentType":5126,"count":5,"max":[1],"min":[0],"type":"SCALAR"},{"bufferView":45,"componentType":5126,"count":5,"max":[0,0,0,1],"min":[-0.02181488461792469,0,0,0.9997619986534119],"type":"VEC4"},{"bufferView":46,"componentType":5126,"count":16,"max":[1],"min":[0],"type":"SCALAR"},{"bufferView":47,"componentType":5126,"count":16,"max":[0,0,0.02181488461792469,1],"min":[0,0,-0.02181488461792469,0.9997619986534119],"type":"VEC4"},{"bufferView":48,"componentType":5126,"count":16,"max":[1],"min":[0],"type":"SCALAR"},{"bufferView":49,"componentType":5126,"count":16,"max":[0,1.3125,0],"min":[0,1.25,0],"type":"VEC3"},{"bufferView":50,"componentType":5126,"count":16,"max":[1],"min":[0],"type":"SCALAR"},{"bufferView":51,"componentType":5126,"count":16,"max":[0.04361938685178757,0,0,1],"min":[0,0,0,0.9990482330322266],"type":"VEC4"},{"bufferView":52,"componentType":5126,"count":16,"max":[1],"min":[0],"type":"SCALAR"},{"bufferView":53,"componentType":5126,"count":16,"max":[0.19509032368659973,0,0,1],"min":[-0.19509032368659973,0,0,0.9807852506637573],"type":"VEC4"},{"bufferView":54,"componentType":5126,"count":16,"max":[1],"min":[0],"type":"SCALAR"},{"bufferView":55,"componentType":5126,"count":16,"max":[0.2164396196603775,0,0,0.9999405145645142],"min":[-0.19509032368659973,0,0,0.9762960076332092],"type":"VEC4"},{"bufferView":56,"componentType":5126,"count":16,"max":[1],"min":[0],"type":"SCALAR"},{"bufferView":57,"componentType":5126,"count":16,"max":[0.2164396196603775,0,0,1],"min":[-0.2164396196603775,0,0,0.9762960076332092],"type":"VEC4"},{"bufferView":58,"componentType":5126,"count":16,"max":[1],"min":[0],"type":"SCALAR"},{"bufferView":59,"componentType":5126,"count":16,"max":[0.2164396196603775,0,0,1],"min":[-0.2164396196603775,0,0,0.9762960076332092],"type":"VEC4"},{"bufferView":60,"componentType":5126,"count":2,"max":[0.08332999795675278],"min":[0],"type":"SCALAR"},{"bufferView":61,"componentType":5126,"count":2,"max":[0.08715574443340302,0,0,1],"min":[0,0,0,0.9961947202682495],"type":"VEC4"},{"bufferView":62,"componentType":5126,"count":2,"max":[0.08332999795675278],"min":[0],"type":"SCALAR"},{"bufferView":63,"componentType":5126,"count":2,"max":[-0.02181488461792469,0,0,0.9997619986534119],"min":[-0.1736481785774231,0,0,0.9848077297210693],"type":"VEC4"},{"bufferView":64,"componentType":5126,"count":2,"max":[0.08332999795675278],"min":[0],"type":"SCALAR"},{"bufferView":65,"componentType":5126,"count":2,"max":[0,1.6875,0],"min":[0,1.3125,0],"type":"VEC3"},{"bufferView":66,"componentType":5126,"count":2,"max":[0.08332999795675278],"min":[0],"type":"SCALAR"},{"bufferView":67,"componentType":5126,"count":2,"max":[0.10886687785387039,0,0,1],"min":[0,0,0,0.9940563440322876],"type":"VEC4"},{"bufferView":68,"componentType":5126,"count":2,"max":[0.08332999795675278],"min":[0],"type":"SCALAR"},{"bufferView":69,"componentType":5126,"count":2,"max":[0,0,0,1],"min":[-0.5,0,0,0.8660253882408142],"type":"VEC4"},{"bufferView":70,"componentType":5126,"count":2,"max":[0.08332999795675278],"min":[0],"type":"SCALAR"},{"bufferView":71,"componentType":5126,"count":2,"max":[0,0,0,1],"min":[-0.5,0,0,0.8660253882408142],"type":"VEC4"},{"bufferView":72,"componentType":5126,"count":2,"max":[0.08332999795675278],"min":[0],"type":"SCALAR"},{"bufferView":73,"componentType":5126,"count":2,"max":[0.19509032368659973,0,0,1],"min":[0,0,0,0.9807852506637573],"type":"VEC4"},{"bufferView":74,"componentType":5126,"count":2,"max":[0.08332999795675278],"min":[0],"type":"SCALAR"},{"bufferView":75,"componentType":5126,"count":2,"max":[0.19509032368659973,0,0,1],"min":[0,0,0,0.9807852506637573],"type":"VEC4"},{"bufferView":76,"componentType":5126,"count":5,"max":[0.20833000540733337],"min":[0],"type":"SCALAR"},{"bufferView":77,"componentType":5126,"count":5,"max":[0.08715574443340302,0,0,0.9998497366905212],"min":[-0.06540312618017197,0,0,0.9961947202682495],"type":"VEC4"},{"bufferView":78,"componentType":5126,"count":5,"max":[0.20833000540733337],"min":[0],"type":"SCALAR"},{"bufferView":79,"componentType":5126,"count":5,"max":[0.1736481785774231,0,0,0.9979174733161926],"min":[-0.1736481785774231,0,0,0.9848077297210693],"type":"VEC4"},{"bufferView":80,"componentType":5126,"count":5,"max":[0.20833000540733337],"min":[0],"type":"SCALAR"},{"bufferView":81,"componentType":5126,"count":5,"max":[0,1.6875,0],"min":[0,1.25,0],"type":"VEC3"},{"bufferView":82,"componentType":5126,"count":5,"max":[0.20833000540733337],"min":[0],"type":"SCALAR"},{"bufferView":83,"componentType":5126,"count":5,"max":[0.4226182699203491,0,0,0.9940563440322876],"min":[0.10886687785387039,0,0,0.9063078165054321],"type":"VEC4"},{"bufferView":84,"componentType":5126,"count":4,"max":[0.125],"min":[0],"type":"SCALAR"},{"bufferView":85,"componentType":5126,"count":4,"max":[-0.4226182699203491,0,0,0.9063078165054321],"min":[-0.5,0,0,0.8660253882408142],"type":"VEC4"},{"bufferView":86,"componentType":5126,"count":4,"max":[0.125],"min":[0],"type":"SCALAR"},{"bufferView":87,"componentType":5126,"count":4,"max":[-0.4226182699203491,0,0,0.9063078165054321],"min":[-0.5,0,0,0.8660253882408142],"type":"VEC4"},{"bufferView":88,"componentType":5126,"count":4,"max":[0.125],"min":[0],"type":"SCALAR"},{"bufferView":89,"componentType":5126,"count":4,"max":[0.19509032368659973,0,0,0.9914448857307434],"min":[0.13052618503570557,0,0,0.9807852506637573],"type":"VEC4"},{"bufferView":90,"componentType":5126,"count":4,"max":[0.125],"min":[0],"type":"SCALAR"},{"bufferView":91,"componentType":5126,"count":4,"max":[0.19509032368659973,0,0,0.9940563440322876],"min":[0.10886687785387039,0,0,0.9807852506637573],"type":"VEC4"}],"materials":[{"pbrMetallicRoughness":{"metallicFactor":0,"roughnessFactor":1,"baseColorTexture":{"index":0}},"alphaMode":"MASK","alphaCutoff":0.05,"doubleSided":true}],"textures":[{"sampler":0,"source":0,"name":"uma scarecrow tex.png"}],"samplers":[{"magFilter":9728,"minFilter":9728,"wrapS":33071,"wrapT":33071}],"images":[{"mimeType":"image/png","uri":"data:image/png;base64,"}],"meshes":[{"primitives":[{"mode":4,"attributes":{"POSITION":0,"NORMAL":1,"TEXCOORD_0":2},"indices":3,"material":0}]},{"primitives":[{"mode":4,"attributes":{"POSITION":4,"NORMAL":5,"TEXCOORD_0":6},"indices":7,"material":0}]},{"primitives":[{"mode":4,"attributes":{"POSITION":8,"NORMAL":9,"TEXCOORD_0":10},"indices":11,"material":0}]},{"primitives":[{"mode":4,"attributes":{"POSITION":12,"NORMAL":13,"TEXCOORD_0":14},"indices":15,"material":0}]},{"primitives":[{"mode":4,"attributes":{"POSITION":16,"NORMAL":17,"TEXCOORD_0":18},"indices":19,"material":0}]},{"primitives":[{"mode":4,"attributes":{"POSITION":20,"NORMAL":21,"TEXCOORD_0":22},"indices":23,"material":0}]},{"primitives":[{"mode":4,"attributes":{"POSITION":24,"NORMAL":25,"TEXCOORD_0":26},"indices":27,"material":0}]},{"primitives":[{"mode":4,"attributes":{"POSITION":28,"NORMAL":29,"TEXCOORD_0":30},"indices":31,"material":0}]},{"primitives":[{"mode":4,"attributes":{"POSITION":32,"NORMAL":33,"TEXCOORD_0":34},"indices":35,"material":0}]},{"primitives":[{"mode":4,"attributes":{"POSITION":36,"NORMAL":37,"TEXCOORD_0":38},"indices":39,"material":0}]},{"primitives":[{"mode":4,"attributes":{"POSITION":40,"NORMAL":41,"TEXCOORD_0":42},"indices":43,"material":0}]}],"animations":[{"name":"walking","samplers":[{"input":44,"output":45,"interpolation":"LINEAR"},{"input":46,"output":47,"interpolation":"LINEAR"},{"input":48,"output":49,"interpolation":"LINEAR"},{"input":50,"output":51,"interpolation":"LINEAR"},{"input":52,"output":53,"interpolation":"LINEAR"},{"input":54,"output":55,"interpolation":"LINEAR"},{"input":56,"output":57,"interpolation":"LINEAR"},{"input":58,"output":59,"interpolation":"LINEAR"}],"channels":[{"sampler":0,"target":{"node":6,"path":"rotation"}},{"sampler":1,"target":{"node":17,"path":"rotation"}},{"sampler":2,"target":{"node":17,"path":"translation"}},{"sampler":3,"target":{"node":8,"path":"rotation"}},{"sampler":4,"target":{"node":10,"path":"rotation"}},{"sampler":5,"target":{"node":12,"path":"rotation"}},{"sampler":6,"target":{"node":14,"path":"rotation"}},{"sampler":7,"target":{"node":16,"path":"rotation"}}]},{"name":"jumping","samplers":[{"input":60,"output":61,"interpolation":"LINEAR"},{"input":62,"output":63,"interpolation":"LINEAR"},{"input":64,"output":65,"interpolation":"LINEAR"},{"input":66,"output":67,"interpolation":"LINEAR"},{"input":68,"output":69,"interpolation":"LINEAR"},{"input":70,"output":71,"interpolation":"LINEAR"},{"input":72,"output":73,"interpolation":"LINEAR"},{"input":74,"output":75,"interpolation":"LINEAR"}],"channels":[{"sampler":0,"target":{"node":6,"path":"rotation"}},{"sampler":1,"target":{"node":17,"path":"rotation"}},{"sampler":2,"target":{"node":17,"path":"translation"}},{"sampler":3,"target":{"node":8,"path":"rotation"}},{"sampler":4,"target":{"node":10,"path":"rotation"}},{"sampler":5,"target":{"node":12,"path":"rotation"}},{"sampler":6,"target":{"node":14,"path":"rotation"}},{"sampler":7,"target":{"node":16,"path":"rotation"}}]},{"name":"falling","samplers":[{"input":76,"output":77,"interpolation":"LINEAR"},{"input":78,"output":79,"interpolation":"LINEAR"},{"input":80,"output":81,"interpolation":"LINEAR"},{"input":82,"output":83,"interpolation":"LINEAR"},{"input":84,"output":85,"interpolation":"LINEAR"},{"input":86,"output":87,"interpolation":"LINEAR"},{"input":88,"output":89,"interpolation":"LINEAR"},{"input":90,"output":91,"interpolation":"LINEAR"}],"channels":[{"sampler":0,"target":{"node":6,"path":"rotation"}},{"sampler":1,"target":{"node":17,"path":"rotation"}},{"sampler":2,"target":{"node":17,"path":"translation"}},{"sampler":3,"target":{"node":8,"path":"rotation"}},{"sampler":4,"target":{"node":10,"path":"rotation"}},{"sampler":5,"target":{"node":12,"path":"rotation"}},{"sampler":6,"target":{"node":14,"path":"rotation"}},{"sampler":7,"target":{"node":16,"path":"rotation"}}]}]}