{"asset":{"version":"2.0","generator":"Blockbench 5.0.3 glTF exporter"},"scenes":[{"nodes":[13],"name":"blockbench_export"}],"scene":0,"nodes":[{"translation":[0,-0.375,-0.3125],"name":"beveled_cuboid","mesh":0},{"rotation":[0,0,0.7071067811865475,0.7071067811865476],"translation":[0.25,0.3125,0.625],"name":"head","mesh":1},{"translation":[0,0.1875,0.3125],"name":"head","children":[1]},{"rotation":[0.23768589232617307,0,0,0.9713420698132614],"translation":[0,-0.5,-0.375],"name":"cuboid","mesh":2},{"translation":[0,0.25,-1.25],"name":"tail","children":[3]},{"translation":[-0.0625,-0.6875,-0.0625],"name":"cylinder","mesh":3},{"translation":[0.25,-0.3125,0.0625],"name":"fl_leg","children":[5]},{"translation":[0.0625,-0.6875,-0.0625],"name":"cylinder","mesh":4},{"translation":[-0.25,-0.3125,0.0625],"name":"fr_leg","children":[7]},{"translation":[-0.0625,-0.75,-0.0625],"name":"cylinder","mesh":5},{"translation":[0.3125,-0.25,-1.25],"name":"hl_leg","children":[9]},{"translation":[0.125,0,0],"name":"cylinder","mesh":6},{"translation":[-0.375,-0.25,-1.25],"name":"hr_leg","children":[11]},{"translation":[0,1.3125,0],"name":"body","children":[0,2,4,6,8,10,12]}],"bufferViews":[{"buffer":0,"byteOffset":0,"byteLength":1968,"target":34962,"byteStride":12},{"buffer":0,"byteOffset":1968,"byteLength":1968,"target":34962,"byteStride":12},{"buffer":0,"byteOffset":3936,"byteLength":1312,"target":34962,"byteStride":8},{"buffer":0,"byteOffset":5248,"byteLength":456,"target":34963},{"buffer":0,"byteOffset":5704,"byteLength":3192,"target":34962,"byteStride":12},{"buffer":0,"byteOffset":8896,"byteLength":3192,"target":34962,"byteStride":12},{"buffer":0,"byteOffset":12088,"byteLength":2128,"target":34962,"byteStride":8},{"buffer":0,"byteOffset":14216,"byteLength":732,"target":34963},{"buffer":0,"byteOffset":14948,"byteLength":288,"target":34962,"byteStride":12},{"buffer":0,"byteOffset":15236,"byteLength":288,"target":34962,"byteStride":12},{"buffer":0,"byteOffset":15524,"byteLength":192,"target":34962,"byteStride":8},{"buffer":0,"byteOffset":15716,"byteLength":72,"target":34963},{"buffer":0,"byteOffset":15788,"byteLength":1296,"target":34962,"byteStride":12},{"buffer":0,"byteOffset":17084,"byteLength":1296,"target":34962,"byteStride":12},{"buffer":0,"byteOffset":18380,"byteLength":864,"target":34962,"byteStride":8},{"buffer":0,"byteOffset":19244,"byteLength":288,"target":34963},{"buffer":0,"byteOffset":19532,"byteLength":1296,"target":34962,"byteStride":12},{"buffer":0,"byteOffset":20828,"byteLength":1296,"target":34962,"byteStride":12},{"buffer":0,"byteOffset":22124,"byteLength":864,"target":34962,"byteStride":8},{"buffer":0,"byteOffset":22988,"byteLength":288,"target":34963},{"buffer":0,"byteOffset":23276,"byteLength":3216,"target":34962,"byteStride":12},{"buffer":0,"byteOffset":26492,"byteLength":3216,"target":34962,"byteStride":12},{"buffer":0,"byteOffset":29708,"byteLength":2144,"target":34962,"byteStride":8},{"buffer":0,"byteOffset":31852,"byteLength":732,"target":34963},{"buffer":0,"byteOffset":32584,"byteLength":3216,"target":34962,"byteStride":12},{"buffer":0,"byteOffset":35800,"byteLength":3216,"target":34962,"byteStride":12},{"buffer":0,"byteOffset":39016,"byteLength":2144,"target":34962,"byteStride":8},{"buffer":0,"byteOffset":41160,"byteLength":732,"target":34963},{"buffer":0,"byteOffset":41892,"byteLength":20},{"buffer":0,"byteOffset":41912,"byteLength":80},{"buffer":0,"byteOffset":41992,"byteLength":64},{"buffer":0,"byteOffset":42056,"byteLength":256},{"buffer":0,"byteOffset":42312,"byteLength":64},{"buffer":0,"byteOffset":42376,"byteLength":192},{"buffer":0,"byteOffset":42568,"byteLength":64},{"buffer":0,"byteOffset":42632,"byteLength":256},{"buffer":0,"byteOffset":42888,"byteLength":64},{"buffer":0,"byteOffset":42952,"byteLength":256},{"buffer":0,"byteOffset":43208,"byteLength":64},{"buffer":0,"byteOffset":43272,"byteLength":256},{"buffer":0,"byteOffset":43528,"byteLength":64},{"buffer":0,"byteOffset":43592,"byteLength":256},{"buffer":0,"byteOffset":43848,"byteLength":64},{"buffer":0,"byteOffset":43912,"byteLength":256},{"buffer":0,"byteOffset":44168,"byteLength":12},{"buffer":0,"byteOffset":44180,"byteLength":48},{"buffer":0,"byteOffset":44228,"byteLength":12},{"buffer":0,"byteOffset":44240,"byteLength":48},{"buffer":0,"byteOffset":44288,"byteLength":12},{"buffer":0,"byteOffset":44300,"byteLength":36},{"buffer":0,"byteOffset":44336,"byteLength":12},{"buffer":0,"byteOffset":44348,"byteLength":48},{"buffer":0,"byteOffset":44396,"byteLength":12},{"buffer":0,"byteOffset":44408,"byteLength":48},{"buffer":0,"byteOffset":44456,"byteLength":12},{"buffer":0,"byteOffset":44468,"byteLength":48},{"buffer":0,"byteOffset":44516,"byteLength":12},{"buffer":0,"byteOffset":44528,"byteLength":48},{"buffer":0,"byteOffset":44576,"byteLength":12},{"buffer":0,"byteOffset":44588,"byteLength":48},{"buffer":0,"byteOffset":44636,"byteLength":20},{"buffer":0,"byteOffset":44656,"byteLength":80},{"buffer":0,"byteOffset":44736,"byteLength":20},{"buffer":0,"byteOffset":44756,"byteLength":80},{"buffer":0,"byteOffset":44836,"byteLength":20},{"buffer":0,"byteOffset":44856,"byteLength":60},{"buffer":0,"byteOffset":44916,"byteLength":20},{"buffer":0,"byteOffset":44936,"byteLength":80},{"buffer":0,"byteOffset":45016,"byteLength":16},{"buffer":0,"byteOffset":45032,"byteLength":64},{"buffer":0,"byteOffset":45096,"byteLength":16},{"buffer":0,"byteOffset":45112,"byteLength":64},{"buffer":0,"byteOffset":45176,"byteLength":16},{"buffer":0,"byteOffset":45192,"byteLength":64},{"buffer":0,"byteOffset":45256,"byteLength":16},{"buffer":0,"byteOffset":45272,"byteLength":64}],"buffers":[{"byteLength":45336,"uri":"data:application/octet-stream;base64,"}],"accessors":[{"bufferView":0,"componentType":5126,"count":164,"max":[0.375,0.8125,0.8041099905967712],"min":[-0.375,-0.125,-1.125],"type":"VEC3"},{"bufferView":1,"componentType":5126,"count":164,"max":[0.9979656934738159,1,0.9762958884239197],"min":[-0.9981271028518677,-0.9892034530639648,-0.9701424837112427],"type":"VEC3"},{"bufferView":2,"componentType":5126,"count":164,"max":[0.6484375,0.640625],"min":[0.0019137499621137977,0],"type":"VEC2"},{"bufferView":3,"componentType":5123,"count":228,"max":[163],"min":[0],"type":"SCALAR"},{"bufferView":4,"componentType":5126,"count":266,"max":[0.4302837550640106,0.4811587631702423,0.375],"min":[-0.6274531483650208,0.018841249868273735,-0.775256872177124],"type":"VEC3"},{"bufferView":5,"componentType":5126,"count":266,"max":[1,1,0.995255708694458],"min":[-1,-1,-0.9907609820365906],"type":"VEC3"},{"bufferView":6,"componentType":5126,"count":266,"max":[0.6704385280609131,0.6640625],"min":[0.03846586123108864,0],"type":"VEC2"},{"bufferView":7,"componentType":5123,"count":366,"max":[265],"min":[0],"type":"SCALAR"},{"bufferView":8,"componentType":5126,"count":24,"max":[0.125,0.625,0.125],"min":[-0.125,-0.25,-0.125],"type":"VEC3"},{"bufferView":9,"componentType":5126,"count":24,"max":[1,1,1],"min":[-1,-1,-1],"type":"VEC3"},{"bufferView":10,"componentType":5126,"count":24,"max":[0.46875,0.5625],"min":[0.046875,0.1015625],"type":"VEC2"},{"bufferView":11,"componentType":5123,"count":36,"max":[23],"min":[0],"type":"SCALAR"},{"bufferView":12,"componentType":5126,"count":108,"max":[0.13985000550746918,0.75,0.1875],"min":[-0.07734999805688858,-0.3125,-0.1084856241941452],"type":"VEC3"},{"bufferView":13,"componentType":5126,"count":108,"max":[0.9553192853927612,1,0.9828721880912781],"min":[-0.9161379337310791,-1,-1],"type":"VEC3"},{"bufferView":14,"componentType":5126,"count":108,"max":[0.65420001745224,0.6875],"min":[0,0.046875],"type":"VEC2"},{"bufferView":15,"componentType":5123,"count":144,"max":[107],"min":[0],"type":"SCALAR"},{"bufferView":16,"componentType":5126,"count":108,"max":[0.07734999805688858,0.75,0.1875],"min":[-0.13985000550746918,-0.3125,-0.10848499834537506],"type":"VEC3"},{"bufferView":17,"componentType":5126,"count":108,"max":[0.9553192853927612,1,0.9828721880912781],"min":[-0.9161379337310791,-1,-1],"type":"VEC3"},{"bufferView":18,"componentType":5126,"count":108,"max":[0.64638751745224,0.6658781170845032],"min":[0.0957999974489212,0.015625],"type":"VEC2"},{"bufferView":19,"componentType":5123,"count":144,"max":[107],"min":[0],"type":"SCALAR"},{"bufferView":20,"componentType":5126,"count":268,"max":[0.13985000550746918,0.9375,0.4375],"min":[-0.07734999805688858,-0.3125,-0.125],"type":"VEC3"},{"bufferView":21,"componentType":5126,"count":268,"max":[1,1,1],"min":[-0.9961154460906982,-1,-1],"type":"VEC3"},{"bufferView":22,"componentType":5126,"count":268,"max":[0.6552249789237976,0.6796875],"min":[0,0],"type":"VEC2"},{"bufferView":23,"componentType":5123,"count":366,"max":[267],"min":[0],"type":"SCALAR"},{"bufferView":24,"componentType":5126,"count":268,"max":[0.07734999805688858,0.1875,0.375],"min":[-0.13985000550746918,-1.0625,-0.1875],"type":"VEC3"},{"bufferView":25,"componentType":5126,"count":268,"max":[1,1,1],"min":[-0.9961154460906982,-1,-1],"type":"VEC3"},{"bufferView":26,"componentType":5126,"count":268,"max":[0.6552249789237976,0.6796875],"min":[0,0],"type":"VEC2"},{"bufferView":27,"componentType":5123,"count":366,"max":[267],"min":[0],"type":"SCALAR"},{"bufferView":28,"componentType":5126,"count":5,"max":[1],"min":[0],"type":"SCALAR"},{"bufferView":29,"componentType":5126,"count":5,"max":[0,0,0,1],"min":[-0.02181488461792469,0,0,0.9997619986534119],"type":"VEC4"},{"bufferView":30,"componentType":5126,"count":16,"max":[1],"min":[0],"type":"SCALAR"},{"bufferView":31,"componentType":5126,"count":16,"max":[0,0,0.02181488461792469,1],"min":[0,0,-0.02181488461792469,0.9997619986534119],"type":"VEC4"},{"bufferView":32,"componentType":5126,"count":16,"max":[1],"min":[0],"type":"SCALAR"},{"bufferView":33,"componentType":5126,"count":16,"max":[0,1.3125,0],"min":[0,1.25,0],"type":"VEC3"},{"bufferView":34,"componentType":5126,"count":16,"max":[1],"min":[0],"type":"SCALAR"},{"bufferView":35,"componentType":5126,"count":16,"max":[0.04361938685178757,0,0,1],"min":[0,0,0,0.9990482330322266],"type":"VEC4"},{"bufferView":36,"componentType":5126,"count":16,"max":[1],"min":[0],"type":"SCALAR"},{"bufferView":37,"componentType":5126,"count":16,"max":[0.19509032368659973,0,0,1],"min":[-0.19509032368659973,0,0,0.9807852506637573],"type":"VEC4"},{"bufferView":38,"componentType":5126,"count":16,"max":[1],"min":[0],"type":"SCALAR"},{"bufferView":39,"componentType":5126,"count":16,"max":[0.2164396196603775,0,0,0.9999405145645142],"min":[-0.19509032368659973,0,0,0.9762960076332092],"type":"VEC4"},{"bufferView":40,"componentType":5126,"count":16,"max":[1],"min":[0],"type":"SCALAR"},{"bufferView":41,"componentType":5126,"count":16,"max":[0.2164396196603775,0,0,1],"min":[-0.2164396196603775,0,0,0.9762960076332092],"type":"VEC4"},{"bufferView":42,"componentType":5126,"count":16,"max":[1],"min":[0],"type":"SCALAR"},{"bufferView":43,"componentType":5126,"count":16,"max":[0.2164396196603775,0,0,1],"min":[-0.2164396196603775,0,0,0.9762960076332092],"type":"VEC4"},{"bufferView":44,"componentType":5126,"count":3,"max":[0.0833333358168602],"min":[0],"type":"SCALAR"},{"bufferView":45,"componentType":5126,"count":3,"max":[0.08715574443340302,0,0,1],"min":[0,0,0,0.9961947202682495],"type":"VEC4"},{"bufferView":46,"componentType":5126,"count":3,"max":[0.0833333358168602],"min":[0],"type":"SCALAR"},{"bufferView":47,"componentType":5126,"count":3,"max":[-0.02181488461792469,0,0,0.9997619986534119],"min":[-0.1736481785774231,0,0,0.9848077297210693],"type":"VEC4"},{"bufferView":48,"componentType":5126,"count":3,"max":[0.0833333358168602],"min":[0],"type":"SCALAR"},{"bufferView":49,"componentType":5126,"count":3,"max":[0,1.6875,0],"min":[0,1.3125,0],"type":"VEC3"},{"bufferView":50,"componentType":5126,"count":3,"max":[0.0833333358168602],"min":[0],"type":"SCALAR"},{"bufferView":51,"componentType":5126,"count":3,"max":[0.10886687785387039,0,0,1],"min":[0,0,0,0.9940563440322876],"type":"VEC4"},{"bufferView":52,"componentType":5126,"count":3,"max":[0.0833333358168602],"min":[0],"type":"SCALAR"},{"bufferView":53,"componentType":5126,"count":3,"max":[0,0,0,1],"min":[-0.5,0,0,0.8660253882408142],"type":"VEC4"},{"bufferView":54,"componentType":5126,"count":3,"max":[0.0833333358168602],"min":[0],"type":"SCALAR"},{"bufferView":55,"componentType":5126,"count":3,"max":[0,0,0,1],"min":[-0.5,0,0,0.8660253882408142],"type":"VEC4"},{"bufferView":56,"componentType":5126,"count":3,"max":[0.0833333358168602],"min":[0],"type":"SCALAR"},{"bufferView":57,"componentType":5126,"count":3,"max":[0.19509032368659973,0,0,1],"min":[0,0,0,0.9807852506637573],"type":"VEC4"},{"bufferView":58,"componentType":5126,"count":3,"max":[0.0833333358168602],"min":[0],"type":"SCALAR"},{"bufferView":59,"componentType":5126,"count":3,"max":[0.19509032368659973,0,0,1],"min":[0,0,0,0.9807852506637573],"type":"VEC4"},{"bufferView":60,"componentType":5126,"count":5,"max":[0.2083333283662796],"min":[0],"type":"SCALAR"},{"bufferView":61,"componentType":5126,"count":5,"max":[0.08715574443340302,0,0,0.999849796295166],"min":[-0.06540312618017197,0,0,0.9961947202682495],"type":"VEC4"},{"bufferView":62,"componentType":5126,"count":5,"max":[0.2083333283662796],"min":[0],"type":"SCALAR"},{"bufferView":63,"componentType":5126,"count":5,"max":[0.1736481785774231,0,0,0.9979172945022583],"min":[-0.1736481785774231,0,0,0.9848077297210693],"type":"VEC4"},{"bufferView":64,"componentType":5126,"count":5,"max":[0.2083333283662796],"min":[0],"type":"SCALAR"},{"bufferView":65,"componentType":5126,"count":5,"max":[0,1.6875,0],"min":[0,1.25,0],"type":"VEC3"},{"bufferView":66,"componentType":5126,"count":5,"max":[0.2083333283662796],"min":[0],"type":"SCALAR"},{"bufferView":67,"componentType":5126,"count":5,"max":[0.4226182699203491,0,0,0.9940563440322876],"min":[0.10886687785387039,0,0,0.9063078165054321],"type":"VEC4"},{"bufferView":68,"componentType":5126,"count":4,"max":[0.125],"min":[0],"type":"SCALAR"},{"bufferView":69,"componentType":5126,"count":4,"max":[-0.4226182699203491,0,0,0.9063078165054321],"min":[-0.5,0,0,0.8660253882408142],"type":"VEC4"},{"bufferView":70,"componentType":5126,"count":4,"max":[0.125],"min":[0],"type":"SCALAR"},{"bufferView":71,"componentType":5126,"count":4,"max":[-0.4226182699203491,0,0,0.9063078165054321],"min":[-0.5,0,0,0.8660253882408142],"type":"VEC4"},{"bufferView":72,"componentType":5126,"count":4,"max":[0.125],"min":[0],"type":"SCALAR"},{"bufferView":73,"componentType":5126,"count":4,"max":[0.19509032368659973,0,0,0.9914448857307434],"min":[0.13052618503570557,0,0,0.9807852506637573],"type":"VEC4"},{"bufferView":74,"componentType":5126,"count":4,"max":[0.125],"min":[0],"type":"SCALAR"},{"bufferView":75,"componentType":5126,"count":4,"max":[0.19509032368659973,0,0,0.9940563440322876],"min":[0.10886687785387039,0,0,0.9807852506637573],"type":"VEC4"}],"materials":[{"pbrMetallicRoughness":{"metallicFactor":0,"roughnessFactor":1,"baseColorTexture":{"index":0}},"alphaMode":"MASK","alphaCutoff":0.05,"doubleSided":true}],"textures":[{"sampler":0,"source":0,"name":"uma tex.png"}],"samplers":[{"magFilter":9728,"minFilter":9728,"wrapS":33071,"wrapT":33071}],"images":[{"mimeType":"image/png","uri":"data:image/png;base64,"}],"meshes":[{"primitives":[{"mode":4,"attributes":{"POSITION":0,"NORMAL":1,"TEXCOORD_0":2},"indices":3,"material":0}]},{"primitives":[{"mode":4,"attributes":{"POSITION":4,"NORMAL":5,"TEXCOORD_0":6},"indices":7,"material":0}]},{"primitives":[{"mode":4,"attributes":{"POSITION":8,"NORMAL":9,"TEXCOORD_0":10},"indices":11,"material":0}]},{"primitives":[{"mode":4,"attributes":{"POSITION":12,"NORMAL":13,"TEXCOORD_0":14},"indices":15,"material":0}]},{"primitives":[{"mode":4,"attributes":{"POSITION":16,"NORMAL":17,"TEXCOORD_0":18},"indices":19,"material":0}]},{"primitives":[{"mode":4,"attributes":{"POSITION":20,"NORMAL":21,"TEXCOORD_0":22},"indices":23,"material":0}]},{"primitives":[{"mode":4,"attributes":{"POSITION":24,"NORMAL":25,"TEXCOORD_0":26},"indices":27,"material":0}]}],"animations":[{"name":"walking","samplers":[{"input":28,"output":29,"interpolation":"LINEAR"},{"input":30,"output":31,"interpolation":"LINEAR"},{"input":32,"output":33,"interpolation":"LINEAR"},{"input":34,"output":35,"interpolation":"LINEAR"},{"input":36,"output":37,"interpolation":"LINEAR"},{"input":38,"output":39,"interpolation":"LINEAR"},{"input":40,"output":41,"interpolation":"LINEAR"},{"input":42,"output":43,"interpolation":"LINEAR"}],"channels":[{"sampler":0,"target":{"node":2,"path":"rotation"}},{"sampler":1,"target":{"node":13,"path":"rotation"}},{"sampler":2,"target":{"node":13,"path":"translation"}},{"sampler":3,"target":{"node":4,"path":"rotation"}},{"sampler":4,"target":{"node":6,"path":"rotation"}},{"sampler":5,"target":{"node":8,"path":"rotation"}},{"sampler":6,"target":{"node":10,"path":"rotation"}},{"sampler":7,"target":{"node":12,"path":"rotation"}}]},{"name":"jumping","samplers":[{"input":44,"output":45,"interpolation":"LINEAR"},{"input":46,"output":47,"interpolation":"LINEAR"},{"input":48,"output":49,"interpolation":"LINEAR"},{"input":50,"output":51,"interpolation":"LINEAR"},{"input":52,"output":53,"interpolation":"LINEAR"},{"input":54,"output":55,"interpolation":"LINEAR"},{"input":56,"output":57,"interpolation":"LINEAR"},{"input":58,"output":59,"interpolation":"LINEAR"}],"channels":[{"sampler":0,"target":{"node":2,"path":"rotation"}},{"sampler":1,"target":{"node":13,"path":"rotation"}},{"sampler":2,"target":{"node":13,"path":"translation"}},{"sampler":3,"target":{"node":4,"path":"rotation"}},{"sampler":4,"target":{"node":6,"path":"rotation"}},{"sampler":5,"target":{"node":8,"path":"rotation"}},{"sampler":6,"target":{"node":10,"path":"rotation"}},{"sampler":7,"target":{"node":12,"path":"rotation"}}]},{"name":"falling","samplers":[{"input":60,"output":61,"interpolation":"LINEAR"},{"input":62,"output":63,"interpolation":"LINEAR"},{"input":64,"output":65,"interpolation":"LINEAR"},{"input":66,"output":67,"interpolation":"LINEAR"},{"input":68,"output":69,"interpolation":"LINEAR"},{"input":70,"output":71,"interpolation":"LINEAR"},{"input":72,"output":73,"interpolation":"LINEAR"},{"input":74,"output":75,"interpolation":"LINEAR"}],"channels":[{"sampler":0,"target":{"node":2,"path":"rotation"}},{"sampler":1,"target":{"node":13,"path":"rotation"}},{"sampler":2,"target":{"node":13,"path":"translation"}},{"sampler":3,"target":{"node":4,"path":"rotation"}},{"sampler":4,"target":{"node":6,"path":"rotation"}},{"sampler":5,"target":{"node":8,"path":"rotation"}},{"sampler":6,"target":{"node":10,"path":"rotation"}},{"sampler":7,"target":{"node":12,"path":"rotation"}}]}]}